<?xml version="1.0" encoding="utf-8"?>
<svg version="1.1" xmlns="http://www.w3.org/2000/svg" xmlns:xlink="http://www.w3.org/1999/xlink" height="931.1157527369614" width="955.6157527369614">
  <defs>
    <path id="path-1" opacity="1" fill-rule="evenodd" d="M427.385452107432,659.3078763684807 C427.385452107432,659.3078763684807 434.48812459966376,674.3078763684807 441.59079709189547,683.3078763684807 C448.6934695841272,692.3078763684807 454.90583789331004,696.8451373236808 462.3524551461112,700.3078763684807 C469.79907239891236,703.7706154132807 496.77309876231095,703.3078763684807 496.77309876231095,703.3078763684807 C496.77309876231095,703.3078763684807 522.004273911568,703.970578187546 529.0083046885933,700.3078763684807 C536.0123354656187,696.6451745494154 545.1930014792842,688.0022915581536 551.9429784081046,680.4937895584583 C561.159342983312,670.2417409110923 566.1607454171899,659.3078763684807 566.1607454171899,659.3078763684807 "/>
    <path id="path-2" opacity="1" fill-rule="evenodd" d="M446.50803189421003,596.3078763684807 C446.50803189421003,596.3078763684807 450.7079694530681,603.8078763684807 465.05809968448847,603.8078763684807 C479.4082299159089,603.8078763684807 492.9485828049557,609.6556545972807 492.9485828049557,609.6556545972807 C492.9485828049557,609.6556545972807 505.87046413548546,604.0839689582126 519.7141191822675,604.0839689582126 C533.5577742290495,604.0839689582126 537.7500554482633,596.3078763684807 537.7500554482633,596.3078763684807 "/>
    <path id="path-3" opacity="1" fill-rule="evenodd" d="M654.6709718588468,320.3078763684808 C654.6709718588468,320.3078763684808 673.495530862736,303.67928215987405 713.1314300641385,310.3078763684808 C752.767329265541,316.93647057708756 735.5193216415977,328.8479332115931 782.5190767190174,337.8078763684807 C829.5188317964371,346.76781952536834 830.9121620643787,329.5279436864532 865.5657089358805,337.8078763684808 C900.2192558073825,346.0878090505084 896.7081960172042,359.3078763684808 896.7081960172042,359.3078763684808 C896.7081960172042,359.3078763684808 893.079024880893,368.3571778576358 886.938848925131,370.3760999250479 C872.5369731791931,375.1115122267614 835.0674250982343,375.0354498899433 803.2807347732331,392.3078763684808 C757.9419297730394,416.94432539742087 713.1314300641385,465.8078763684807 713.1314300641385,465.8078763684807 "/>
    <path id="path-4" opacity="1" fill-rule="evenodd" d="M231.78877885982052,450.8078763684805 C231.78877885982052,450.8078763684805 220.64720680484785,435.58755657121475 190.26546275138904,429.80787636848055 C159.8837186979302,424.02819616574635 150.38122491039562,429.80787636848055 132.89772339105605,434.8078763684805 C115.41422187171648,439.80787636848044 96.23823400592039,441.0820357380886 75.6415764972934,434.43853573808866 C55.0449189886664,427.79503573808864 59.13920135634221,413.30787636848055 59.13920135634221,413.30787636848055 C59.13920135634221,413.30787636848055 79.71437935383241,415.6172360660781 120.33145667403072,387.30787636848055 C160.94853399422902,358.99851667088296 151.99139065124427,351.3558802402985 196.275416398662,332.30787636848055 C240.55944214607976,313.2598724966625 266.20942247602034,322.30787636848055 266.20942247602034,322.30787636848055 "/>
    <path id="path-5" opacity="1" fill-rule="evenodd" d="M491.3095045375171,609.8078763684807 L496.7730987623107,698.8078763684807 "/>
    <path id="path-6" opacity="1" fill-rule="evenodd" d="M282.0538457279217,567.3078763684807 C283.6929239953598,571.3078763684807 284.8416569095104,589.3055660915774 300.08370666974065,619.4845071288712 C315.3257564299709,649.6634481661649 333.946689047316,657.5074276253129 355.2660083401562,689.3078763684807 C376.5853276329965,721.1083251116486 388.5939331113973,752.3078763684807 401.70655925090205,777.3078763684807 C414.8191853904067,802.3078763684807 468.9087682158635,822.3078763684807 486.39226973520306,822.3078763684807 C503.87577125454266,822.3078763684807 522.451991618841,822.3078763684807 535.0182583358663,822.3078763684807 C547.5845250528916,822.3078763684807 587.468762893885,804.8078763684807 601.1277484558691,777.3078763684807 C614.7867340178532,749.8078763684807 615.3330934403325,721.8078763684807 632.8165949596721,689.3078763684807 C650.3000964790117,656.8078763684807 667.7428584776826,637.7458471477279 676.525348758021,619.4845071288712 C685.2670995176909,601.3078763684807 700.0188039246336,567.3078763684807 700.0188039246336,567.3078763684807 "/>
    <path id="path-7" opacity="1" fill-rule="evenodd" d="M255.82859344891256,492.3078763684807 C255.82859344891256,492.3078763684807 247.6332021117221,542.3078763684807 247.6332021117221,552.8078763684807 C247.6332021117221,563.3078763684807 252.55043691403637,603.3078763684807 244.35504557684595,640.3078763684807 C236.1596542396555,677.3078763684807 194.08997870874464,736.8078763684806 194.08997870874464,736.8078763684806 C194.08997870874464,736.8078763684806 230.69606001486187,738.3078763684806 247.6332021117221,725.8078763684807 C264.57034420858236,713.3078763684807 273.31209496825215,710.3078763684807 273.31209496825215,710.3078763684807 C273.31209496825215,710.3078763684807 264.023984786103,743.8078763684806 255.82859344891256,782.3078763684807 C247.6332021117221,820.8078763684807 230.86648608983796,872.3078763684807 230.86648608983796,872.3078763684807 "/>
    <path id="path-8" opacity="1" fill-rule="evenodd" d="M730.0685721609982,507.8078763684807 C730.0685721609982,507.8078763684807 724.7110272764339,549.5142530413126 728.9171139185678,589.63512159039 C732.9972586610381,628.5546600597204 745.7117727246475,665.8392602823268 752.4693084826521,685.3078763684807 C767.2210128895947,727.8078763684807 801.0952970833151,794.8078763684807 801.0952970833151,794.8078763684807 C801.0952970833151,794.8078763684807 779.8650000760521,786.6120528484851 758.9306924443329,767.454052848485 C737.9963848126137,748.296052848485 730.0685721609982,738.3078763684807 730.0685721609982,738.3078763684807 C730.0685721609982,738.3078763684807 718.2909441373959,755.5671852590111 736.0785258082713,811.3078763684807 C753.8661074791465,867.0485674779502 758.930692444333,865.8078763684807 758.930692444333,865.8078763684807 "/>
    <path id="path-9" opacity="1" fill-rule="evenodd" d="M162.4718377190644,484.8078763684808 C165.83943543318298,481.8078763684808 229.82530333408775,477.7910556121407 256.76457371438374,435.3078763684808 C283.7038440946797,392.82469712482083 295.2197495479856,354.3078763684807 295.2197495479856,354.3078763684807 C295.2197495479856,354.3078763684807 285.82776563915525,354.76090609207984 257.52378037153164,369.59290609207983 C229.2197951039081,384.42490609207977 194.12725623177874,374.3078763684808 194.12725623177874,374.3078763684808 C194.12725623177874,374.3078763684808 236.55898742967247,353.3078763684807 250.70289782897038,336.3078763684807 C264.8468082282683,319.3078763684808 256.5220062529011,312.51814814696274 276.970159999095,288.8078763684807 C297.4183137452889,265.0976045899988 315.36077394004644,260.8078763684807 315.36077394004644,260.8078763684807 C315.36077394004644,260.8078763684807 283.79104254165634,249.80787636848075 257.52378037153164,254.30787636848075 C231.256518201407,258.8078763684807 194.12725623177874,270.8078763684807 194.12725623177874,270.8078763684807 C194.12725623177874,270.8078763684807 222.82361198460853,209.91808492387943 296.2891031571903,175.15558492387945 C369.7545943297721,140.39308492387943 431.8796548485482,158.30787636848072 431.8796548485482,158.30787636848072 C431.8796548485482,158.30787636848072 420.0553215720855,139.2441084043611 400.98719705790006,132.80787636848072 C381.9190725437144,126.37164433260035 328.8785960846477,124.80787636848073 328.8785960846477,124.80787636848073 C328.8785960846477,124.80787636848073 360.0188554675045,93.30787636848072 410.9391144358477,93.30787636848072 C461.8593734041909,93.30787636848072 497.37273586534945,115.30787636848073 497.37273586534945,115.30787636848073 C497.37273586534945,115.30787636848073 496.28001702039074,104.80787636848072 491.3627822180764,96.30787636848072 C486.44554741576223,87.80787636848072 480.98195319096857,58.80787636848072 480.98195319096857,58.80787636848072 C480.98195319096857,58.80787636848072 491.25862538178393,66.34973113110405 524.6907069893176,77.30787636848072 C550.459172488188,85.75409251486994 564.012709322092,90.26094185327011 580.7274738125882,103.30787636848072 C619.1280220577073,133.28194142857336 611.561855163536,186.30787636848072 611.561855163536,186.30787636848072 C611.561855163536,186.30787636848072 629.5917161053551,173.30787636848072 630.6844349503137,162.30787636848072 C631.7771537952725,151.30787636848072 631.7771537952725,115.30787636848072 631.7771537952725,115.30787636848072 C631.7771537952725,115.30787636848072 645.4029041700159,137.02628230648298 660.951915445205,151.20561487887466 C673.9294160827353,163.03995561226813 682.2239272763653,165.2633107097415 691.1846788356763,186.30787636848072 C710.8817679164789,232.5670189976797 678.7640641284975,277.8078763684807 678.7640641284975,277.8078763684807 C678.7640641284975,277.8078763684807 696.7939250703164,277.8078763684807 704.6550696921506,260.8078763684807 C712.5162143139848,243.80787636848075 728.4827715741194,217.80787636848075 728.4827715741194,217.80787636848075 C728.4827715741194,217.80787636848075 728.7928410599385,251.15687479127436 733.946365798913,270.8078763684807 C737.2245223337892,283.3078763684807 745.7252064159726,350.41052324694624 691.1846788356763,395.8078763684808 C636.6441512553799,441.2052294900153 559.1748484422294,471.8078763684808 559.1748484422294,471.8078763684808 C559.1748484422294,471.8078763684808 575.2220860099465,446.98812169906347 580.7274738125882,419.8078763684808 C586.2328616152299,392.627631037898 580.7274738125882,384.30787636848083 580.7274738125882,384.30787636848083 C580.7274738125882,384.30787636848083 556.7523215278926,420.57211799916143 514.0490390730407,450.8078763684808 C471.34575661818883,481.0436347378001 446.0235652478463,484.8078763684808 446.0235652478463,484.8078763684808 L342.20665988121067,508.3078763684808 C342.20665988121067,508.3078763684808 397.59159274970466,477.8078763684808 404.2653535927762,460.8078763684808 C410.9391144358477,443.8078763684808 404.2653535927762,409.8078763684808 404.2653535927762,409.8078763684808 C404.2653535927762,409.8078763684808 353.7513878809979,461.3078763684808 315.36077394004644,484.8078763684808 "/>
    <path id="path-10" opacity="1" fill-rule="evenodd" d="M464.5378928360285,484.0186342871593 C464.5378928360285,484.0186342871593 483.66047262280614,480.3078763684807 492.40222338247594,480.3078763684807 C501.1439741421457,480.3078763684807 516.9883973940472,484.0186342871593 516.9883973940472,484.0186342871593 "/>
    <path id="path-11" opacity="1" fill-rule="evenodd" d="M517.8212091433697,437.10150883971244 C524.7243038667386,426.5402651036585 544.5922221707862,419.29977964688425 571.3201932494787,417.48327666802425 C598.0481643281712,415.6667736891642 607.6430995763567,414.8675123784658 648.3434517480762,417.48327666802425 C689.0438039197957,420.09904095758264 716.4741927194211,436.8467731662955 716.4741927194211,436.8467731662955 C716.7520806205739,437.01643872176925 717.0400670876099,437.1689815913144 717.3365451927581,437.30355060516627 C717.3365451927581,437.30355060516627 742.5968988825839,448.7690208256104 742.5968988825839,495.29203065396206 C742.5968988825839,520.1520250331926 743.6986110423657,538.5118014811037 734.0284036885379,555.4648429422314 C724.9576170018765,571.3670275756499 714.0114334892187,578.3328492240267 714.0114334892187,578.3328492240267 C714.0012741870707,578.339314298064 713.9911294951413,578.345802302204 713.9809994910061,578.3523131868336 C713.9809994910061,578.3523131868336 686.5477342037141,595.984569098369 631.1674076407951,587.4977218608967 C575.7870810778759,579.0108746234243 545.1175826982175,547.9608173231729 545.1175826982175,547.9608173231729 C544.8850279108948,547.7253769066904 544.6380883107023,547.5045931416257 544.378187270331,547.2997386370766 C544.378187270331,547.2997386370766 522.7467002307018,530.2497585606933 512.8179564246008,495.29203065396206 C508.49956175965883,480.0875628341601 508.32905900230554,470.2450398591406 509.2346696482802,461.81236638885025 "/>
    <path id="path-12" opacity="1" fill-rule="evenodd" d="M247.91965443856452,436.10150883971244 C254.82274916193342,425.5402651036585 274.69066746598094,418.29977964688425 301.41863854467346,416.48327666802425 C328.1466096233659,414.6667736891642 337.74154487155147,413.8675123784658 378.44189704327096,416.48327666802425 C419.14224921499044,419.09904095758264 446.57263801461573,435.8467731662955 446.57263801461573,435.8467731662955 C446.85052591576857,436.01643872176925 447.13851238280466,436.1689815913144 447.4349904879528,436.30355060516627 C447.4349904879528,436.30355060516627 472.6953441777785,447.7690208256104 472.6953441777785,494.29203065396206 C472.6953441777785,519.1520250331926 473.79705633756026,537.5118014811037 464.12684898373254,554.4648429422314 C455.0560622970712,570.3670275756499 444.10987878441335,577.3328492240267 444.10987878441335,577.3328492240267 C444.0997194822654,577.339314298064 444.089574790336,577.345802302204 444.07944478620067,577.3523131868336 C444.07944478620067,577.3523131868336 416.6461794989087,594.984569098369 361.2658529359898,586.4977218608967 C305.88552637307066,578.0108746234243 275.2160279934122,546.9608173231729 275.2160279934122,546.9608173231729 C274.98347320608957,546.7253769066904 274.7365336058971,546.5045931416257 274.4766325655258,546.2997386370766 C274.4766325655258,546.2997386370766 252.84514552589658,529.2497585606933 242.91640171979557,494.29203065396206 C238.59800705485364,479.0875628341601 238.42750429750032,469.2450398591406 239.33311494347495,460.81236638885025 "/>
  </defs>
  <g opacity="1">
    <g opacity="1">
      <use xlink:href="#path-1" fill-opacity="0" stroke="rgb(0,0,0)" stroke-opacity="1" stroke-width="25" stroke-linecap="butt" stroke-linejoin="miter"/>
    </g>
    <g opacity="1">
      <use xlink:href="#path-2" fill-opacity="0" stroke="rgb(0,0,0)" stroke-opacity="1" stroke-width="25" stroke-linecap="butt" stroke-linejoin="miter"/>
    </g>
    <g opacity="1">
      <use xlink:href="#path-3" fill-opacity="0" stroke="rgb(0,0,0)" stroke-opacity="1" stroke-width="25" stroke-linecap="butt" stroke-linejoin="miter"/>
    </g>
    <g opacity="1">
      <use xlink:href="#path-4" fill-opacity="0" stroke="rgb(0,0,0)" stroke-opacity="1" stroke-width="25" stroke-linecap="butt" stroke-linejoin="miter"/>
    </g>
    <g opacity="1">
      <use xlink:href="#path-5" fill-opacity="0" stroke="rgb(0,0,0)" stroke-opacity="1" stroke-width="25" stroke-linecap="butt" stroke-linejoin="miter"/>
    </g>
    <g opacity="1">
      <use xlink:href="#path-6" fill-opacity="0" stroke="rgb(0,0,0)" stroke-opacity="1" stroke-width="25" stroke-linecap="butt" stroke-linejoin="miter"/>
    </g>
    <g opacity="1">
      <use xlink:href="#path-7" fill-opacity="0" stroke="rgb(0,0,0)" stroke-opacity="1" stroke-width="25" stroke-linecap="butt" stroke-linejoin="miter"/>
    </g>
    <g opacity="1">
      <use xlink:href="#path-8" fill-opacity="0" stroke="rgb(0,0,0)" stroke-opacity="1" stroke-width="25" stroke-linecap="butt" stroke-linejoin="miter"/>
    </g>
    <g opacity="1">
      <use xlink:href="#path-9" fill="rgb(255,255,255)" fill-opacity="1"/>
      <use xlink:href="#path-9" fill-opacity="0" stroke="rgb(0,0,0)" stroke-opacity="1" stroke-width="25" stroke-linecap="butt" stroke-linejoin="miter"/>
    </g>
    <g opacity="1">
      <use xlink:href="#path-10" fill-opacity="0" stroke="rgb(255,51,102)" stroke-opacity="1" stroke-width="10" stroke-linecap="butt" stroke-linejoin="miter"/>
    </g>
    <g opacity="1">
      <use xlink:href="#path-11" fill="rgb(255,51,102)" fill-opacity="1"/>
    </g>
    <g transform="translate(355.81236776263535, 501.8078763684807) scale(-1, 1) translate(-355.81236776263535, -501.8078763684807)" opacity="1">
      <use xlink:href="#path-12" fill="rgb(255,51,102)" fill-opacity="1"/>
    </g>
  </g>
</svg>